<?xml version="1.0" standalone="no"?>
<!DOCTYPE svg PUBLIC "-//W3C//DTD SVG 20010904//EN"
 "http://www.w3.org/TR/2001/REC-SVG-20010904/DTD/svg10.dtd">
<svg version="1.0" xmlns="http://www.w3.org/2000/svg"
 width="512.000000pt" height="512.000000pt" viewBox="0 0 512.000000 512.000000"
 preserveAspectRatio="xMidYMid meet">

<g transform="translate(0.000000,512.000000) scale(0.100000,-0.100000)"
fill="#000000" stroke="none">
<path d="M383 5106 c-181 -44 -334 -202 -372 -384 -15 -74 -15 -1790 0 -1864
17 -82 65 -172 126 -238 l55 -60 -55 -60 c-61 -66 -109 -156 -126 -238 -15
-74 -15 -1790 0 -1864 39 -187 200 -348 387 -387 74 -15 1790 -15 1864 0 82
17 172 65 238 126 l60 55 60 -55 c66 -61 156 -109 238 -126 36 -8 330 -11 935
-11 760 0 891 2 942 15 189 49 336 199 374 383 15 74 15 1790 0 1864 -17 82
-65 172 -126 238 l-55 60 55 60 c61 66 109 156 126 238 15 74 15 1790 0 1864
-39 187 -200 348 -387 387 -74 15 -1790 15 -1864 0 -82 -17 -172 -65 -238
-126 l-60 -55 -60 55 c-66 61 -156 109 -238 126 -80 17 -1809 14 -1879 -3z
m1909 -219 c64 -32 111 -80 142 -146 21 -46 21 -52 21 -951 0 -899 0 -905 -21
-951 -31 -66 -78 -114 -142 -146 l-57 -28 -905 0 c-899 0 -905 0 -951 21 -66
31 -114 78 -146 142 l-28 57 -3 875 c-2 612 0 890 8 926 22 101 93 181 193
216 49 16 108 17 942 15 l890 -2 57 -28z m2460 0 c64 -32 111 -80 142 -146 21
-46 21 -52 21 -951 0 -899 0 -905 -21 -951 -31 -66 -78 -114 -142 -146 l-57
-28 -905 0 c-899 0 -905 0 -951 21 -66 31 -114 78 -146 142 l-28 57 -3 875
c-2 612 0 890 8 926 22 101 93 181 193 216 49 16 108 17 942 15 l890 -2 57
-28z m-2142 -2282 l44 -45 -47 -48 -47 -47 -47 47 -47 48 44 45 c24 25 47 45
50 45 3 0 26 -20 50 -45z m-318 -178 c64 -32 111 -80 142 -146 21 -46 21 -52
21 -951 0 -899 0 -905 -21 -951 -31 -66 -78 -114 -142 -146 l-57 -28 -905 0
c-899 0 -905 0 -951 21 -66 31 -114 78 -146 142 l-28 57 -3 875 c-2 612 0 890
8 926 22 101 93 181 193 216 49 16 108 17 942 15 l890 -2 57 -28z m2460 0 c64
-32 111 -80 142 -146 21 -46 21 -52 21 -951 0 -899 0 -905 -21 -951 -31 -66
-78 -114 -142 -146 l-57 -28 -905 0 c-899 0 -905 0 -951 21 -66 31 -114 78
-146 142 l-28 57 -3 875 c-2 612 0 890 8 926 22 101 93 181 193 216 49 16 108
17 942 15 l890 -2 57 -28z"/>
<path d="M1249 4272 c-211 -55 -369 -261 -369 -481 0 -209 136 -400 336 -472
44 -17 84 -22 159 -23 104 -1 140 7 233 52 l52 25 33 -31 c61 -58 118 -62 162
-10 38 46 34 89 -15 142 l-40 43 30 65 c56 120 63 255 19 375 -92 248 -346
381 -600 315z m234 -202 c141 -53 222 -204 187 -349 -6 -28 -14 -51 -17 -51
-3 0 -26 19 -50 41 -41 38 -48 41 -87 36 -54 -8 -86 -44 -86 -98 0 -32 7 -47
41 -84 l41 -45 -28 -12 c-16 -6 -63 -12 -104 -12 -63 -1 -84 4 -132 27 -110
54 -174 165 -165 287 13 201 212 330 400 260z"/>
<path d="M3484 4280 c-53 -21 -54 -30 -54 -377 0 -366 4 -389 80 -476 157
-178 426 -180 588 -2 80 88 82 98 82 478 l0 329 -29 29 c-40 40 -89 40 -133 0
l-33 -29 -5 -327 -5 -327 -39 -34 c-69 -60 -159 -69 -231 -24 -70 43 -69 39
-75 393 l-5 319 -33 29 c-33 30 -67 36 -108 19z"/>
<path d="M1264 1796 l-34 -34 0 -426 c0 -457 1 -466 51 -492 35 -18 63 -18 98
0 50 26 51 36 51 487 0 375 -2 424 -17 449 -34 59 -99 66 -149 16z"/>
<path d="M3491 1816 c-28 -16 -50 -52 -51 -84 0 -30 25 -77 47 -88 10 -5 97
-11 194 -14 l176 -5 -215 -330 c-243 -372 -247 -380 -184 -436 l32 -29 300 0
300 0 32 29 c44 39 46 98 5 138 l-27 28 -195 5 -194 5 215 329 c235 362 241
374 190 433 l-24 28 -289 2 c-227 2 -293 0 -312 -11z"/>
</g>
</svg>
